<svg width="28" height="28" viewBox="0 0 28 28" fill="none" xmlns="http://www.w3.org/2000/svg">
<path d="M2.9165 3.50195H25.0832" stroke="black" stroke-width="2.33333" stroke-linecap="round" stroke-linejoin="round"/>
<path d="M5.25 3.50195V16.3342C5.25 19.0511 5.75235 19.9384 8.08211 21.3363L11.599 23.4464C12.7688 24.1482 13.3537 24.4992 14 24.4992C14.6463 24.4992 15.2312 24.1482 16.401 23.4464L19.9179 21.3363C22.2476 19.9384 22.75 19.0511 22.75 16.3342V3.50195" stroke="black" stroke-width="2.33333" stroke-linecap="round" stroke-linejoin="round"/>
<path d="M14.7053 9.33971L15.4239 10.7888C15.5219 10.9905 15.7832 11.184 16.0036 11.221L17.3061 11.4392C18.139 11.5791 18.335 12.1884 17.7348 12.7895L16.7223 13.8103C16.5508 13.9832 16.4569 14.3168 16.5099 14.5555L16.7999 15.8193C17.0284 16.8196 16.5018 17.2066 15.624 16.6838L14.4032 15.9551C14.1827 15.8234 13.8193 15.8234 13.5948 15.9551L12.374 16.6838C11.5002 17.2066 10.9694 16.8155 11.1981 15.8193L11.488 14.5555C11.5411 14.3168 11.4471 13.9832 11.2757 13.8103L10.2631 12.7895C9.66701 12.1884 9.85891 11.5791 10.6918 11.4392L11.9942 11.221C12.2107 11.184 12.472 10.9905 12.57 10.7888L13.2885 9.33971C13.6805 8.55343 14.3174 8.55343 14.7053 9.33971Z" stroke="black" stroke-width="2.33333" stroke-linecap="round" stroke-linejoin="round"/>
</svg>
