<svg width="28" height="28" viewBox="0 0 28 28" fill="none" xmlns="http://www.w3.org/2000/svg">
<path d="M1.75 10.6166C1.75 7.51304 1.75 5.96123 2.354 4.7758C2.8853 3.73307 3.73307 2.8853 4.7758 2.354C5.96123 1.75 7.51304 1.75 10.6166 1.75H17.3834C20.487 1.75 22.0388 1.75 23.2242 2.354C24.2669 2.8853 25.1147 3.73307 25.646 4.7758C26.25 5.96123 26.25 7.51304 26.25 10.6166V17.3834C26.25 20.487 26.25 22.0388 25.646 23.2242C25.1147 24.2669 24.2669 25.1147 23.2242 25.646C22.0388 26.25 20.487 26.25 17.3834 26.25H10.6166C7.51304 26.25 5.96123 26.25 4.7758 25.646C3.73307 25.1147 2.8853 24.2669 2.354 23.2242C1.75 22.0388 1.75 20.487 1.75 17.3834V10.6166Z" fill="#00005B"/>
<path d="M12.0656 17.1183H8.2691L7.49664 19.5842C7.47519 19.6756 7.39099 19.7404 7.29941 19.7359H5.37647C5.26682 19.7359 5.22847 19.6741 5.26143 19.5505L8.54848 9.88104C8.58138 9.77997 8.61423 9.6811 8.64713 9.55177C8.69011 9.32681 8.71213 9.09826 8.71286 8.8691C8.70345 8.80137 8.7619 8.74138 8.82787 8.75106H11.4411C11.5177 8.75106 11.5615 8.77915 11.5726 8.83532L15.3035 19.5673C15.3363 19.6798 15.3034 19.736 15.2049 19.7359H13.0682C12.9933 19.7444 12.9217 19.693 12.9039 19.6179L12.0656 17.1183ZM8.86077 15.0392H11.4576C11.0309 13.5813 10.5494 12.1426 10.1592 10.6733C9.71696 12.1974 9.3086 13.6109 8.86077 15.0392Z" fill="#9999FF"/>
<path d="M18.0783 16.1662C18.2294 17.4183 19.2808 18.0152 20.445 17.9897C21.1015 17.9769 21.8031 17.8749 22.4165 17.6267C22.4711 17.582 22.4987 17.6099 22.4987 17.711V19.3124C22.5038 19.3957 22.469 19.4701 22.4001 19.5147C21.6376 19.861 20.7624 19.9655 19.9355 19.9522C17.4699 19.9522 15.7767 18.215 15.7774 15.6874C15.7709 13.2922 17.3248 11.2715 19.7382 11.2715C21.7841 11.2185 23.2004 12.8564 23.2061 14.8952C23.2061 15.2665 23.1854 15.6391 23.1404 16.0077C23.1317 16.0836 23.067 16.1426 22.9924 16.1426C21.3586 16.1426 19.7167 16.1662 18.0783 16.1662ZM18.0783 14.6306C18.9889 14.6306 19.9047 14.6628 20.8147 14.6222C20.9515 14.6082 21.0531 14.5822 21.0531 14.44C21.0341 13.6842 20.3962 13.0625 19.6561 13.0915C18.7618 13.036 18.1895 13.791 18.0783 14.6306Z" fill="#9999FF"/>
</svg>
