<svg width="16" height="16" viewBox="0 0 16 16" fill="none" xmlns="http://www.w3.org/2000/svg">
<path d="M11.8746 3.66004V4.15337L9.51459 2.78671C8.62126 2.27337 7.37459 2.27337 6.48793 2.78671L4.12793 4.16004V3.66004C4.12793 2.16004 4.94793 1.33337 6.44793 1.33337H9.55459C11.0546 1.33337 11.8746 2.16004 11.8746 3.66004Z" fill="#EEB413"/>
<path d="M11.893 5.31215L11.7997 5.26548L10.893 4.74548L9.01301 3.65881C8.43967 3.32548 7.55967 3.32548 6.98634 3.65881L5.10634 4.73881L4.19967 5.27215L4.07967 5.33215C2.91301 6.11881 2.83301 6.26548 2.83301 7.52549V10.5388C2.83301 11.7988 2.91301 11.9455 4.10634 12.7522L6.98634 14.4122C7.27301 14.5855 7.63301 14.6588 7.99967 14.6588C8.35967 14.6588 8.72634 14.5788 9.01301 14.4122L11.9197 12.7322C13.093 11.9455 13.1663 11.8055 13.1663 10.5388V7.52549C13.1663 6.26548 13.0863 6.11881 11.893 5.31215ZM9.85967 8.99883L9.45301 9.49883C9.38634 9.57216 9.33967 9.71216 9.34634 9.81216L9.38634 10.4522C9.41301 10.8455 9.13301 11.0455 8.76634 10.9055L8.17301 10.6655C8.07967 10.6322 7.92634 10.6322 7.83301 10.6655L7.23967 10.8988C6.87301 11.0455 6.59301 10.8388 6.61967 10.4455L6.65967 9.80549C6.66634 9.70549 6.61967 9.56549 6.55301 9.49216L6.13967 8.99883C5.88634 8.69883 5.99967 8.36549 6.37967 8.26549L6.99967 8.10549C7.09967 8.07883 7.21301 7.98549 7.26634 7.90549L7.61301 7.37216C7.82634 7.03883 8.16634 7.03883 8.38634 7.37216L8.73301 7.90549C8.78634 7.99216 8.90634 8.07883 8.99967 8.10549L9.61967 8.26549C9.99967 8.36549 10.113 8.69883 9.85967 8.99883Z" fill="#EEB413"/>
</svg>
