<svg width="20" height="20" viewBox="0 0 20 20" fill="none" xmlns="http://www.w3.org/2000/svg">
<g clip-path="url(#clip0_70_267)">
<path fill-rule="evenodd" clip-rule="evenodd" d="M12.981 5.61719H18.069V4.16016H12.981V5.61719ZM15.489 8.54346C14.354 8.54346 13.492 9.24662 13.409 10.5459H17.481C17.205 9.00391 16.52 8.54346 15.489 8.54346ZM15.648 14.5698C16.696 14.5698 17.465 13.9078 17.622 13.3501H19.826C19.196 15.3672 17.895 16.5 15.559 16.5C12.578 16.5 10.905 14.3798 10.905 11.5664C10.905 4.94092 20.465 4.70338 19.985 12.1851H13.409C13.473 13.7043 14.1 14.5698 15.648 14.5698ZM5.73 14.2783C6.933 14.2783 7.775 13.8156 7.775 12.5669C7.775 11.2718 7.031 10.71 5.782 10.71H2.768V14.2783H5.73ZM5.571 8.76221C6.572 8.76221 7.263 8.29626 7.263 7.21387C7.263 6.07365 6.459 5.72168 5.36 5.72168H2.768V8.76221H5.571ZM5.924 3.5C8.295 3.5 9.943 4.2837 9.943 6.72217C9.943 7.92953 9.458 8.82929 8.233 9.43555C9.801 9.90135 10.543 11.1244 10.543 12.7314C10.543 15.2825 8.52 16.5 6.1 16.5H0V3.5H5.924Z" fill="black"/>
</g>
<defs>
<clipPath id="clip0_70_267">
<rect width="20" height="20" fill="white"/>
</clipPath>
</defs>
</svg>
