<svg width="20" height="20" viewBox="0 0 20 20" fill="none" xmlns="http://www.w3.org/2000/svg">
<path fill-rule="evenodd" clip-rule="evenodd" d="M2.99672 8.9315C5.15675 9.11075 7.22498 8.67733 8.93717 7.69761C8.06717 6.40962 7.0528 5.228 5.93003 4.20194C4.38368 5.28942 3.29202 6.97983 2.99672 8.9315ZM5.57816 2.44788C2.98863 3.96735 1.25 6.78063 1.25 10C1.25 14.8325 5.16751 18.75 10 18.75C14.8325 18.75 18.75 14.8325 18.75 10C18.75 5.16751 14.8325 1.25 10 1.25C8.39617 1.25 6.89308 1.68152 5.60057 2.43478C5.59304 2.43903 5.58557 2.44339 5.57816 2.44788ZM7.48438 3.37637C8.52358 4.38327 9.47067 5.51463 10.2989 6.73642C11.3064 5.86826 12.1169 4.75874 12.6485 3.42842C11.8303 3.09836 10.9364 2.91667 10 2.91667C9.11408 2.91667 8.26612 3.07932 7.48438 3.37637ZM14.1187 4.23656C13.444 5.83928 12.4303 7.15463 11.1903 8.16708C11.4798 8.67417 11.7492 9.19333 11.9968 9.7225C13.5655 9.112 15.2641 8.82983 17.0096 8.97417C16.7268 7.02508 15.6504 5.33311 14.1187 4.23656ZM17.0538 10.652C15.5355 10.4968 14.0375 10.7273 12.6444 11.2611C13.2177 12.7907 13.6083 14.3827 13.7801 15.9914C15.5922 14.8457 16.8485 12.9008 17.0538 10.652ZM12.1738 16.7435C12.0602 15.1327 11.6992 13.5256 11.1336 11.9809C9.36825 12.9953 7.85373 14.5104 6.80102 16.3215C7.76193 16.8088 8.84892 17.0833 10 17.0833C10.7583 17.0833 11.4889 16.9642 12.1738 16.7435ZM5.41158 15.3965C6.63199 13.3346 8.40258 11.5867 10.4882 10.4312C10.2796 9.98508 10.054 9.54633 9.81275 9.11658C7.8019 10.277 5.39652 10.787 2.94164 10.5991C3.10229 12.5175 4.02749 14.2185 5.41158 15.3965Z" fill="black"/>
</svg>
