<svg width="28" height="28" viewBox="0 0 28 28" fill="none" xmlns="http://www.w3.org/2000/svg">
<path d="M1.75 10.6166C1.75 7.51304 1.75 5.96123 2.354 4.7758C2.8853 3.73307 3.73307 2.8853 4.7758 2.354C5.96123 1.75 7.51304 1.75 10.6166 1.75H17.3834C20.487 1.75 22.0388 1.75 23.2242 2.354C24.2669 2.8853 25.1147 3.73307 25.646 4.7758C26.25 5.96123 26.25 7.51304 26.25 10.6166V17.3834C26.25 20.487 26.25 22.0388 25.646 23.2242C25.1147 24.2669 24.2669 25.1147 23.2242 25.646C22.0388 26.25 20.487 26.25 17.3834 26.25H10.6166C7.51304 26.25 5.96123 26.25 4.7758 25.646C3.73307 25.1147 2.8853 24.2669 2.354 23.2242C1.75 22.0388 1.75 20.487 1.75 17.3834V10.6166Z" fill="#330000"/>
<path d="M13.6225 17.1468H9.82598L9.05353 19.6079C9.0321 19.6993 8.94792 19.7641 8.85631 19.7595H6.93336C6.82369 19.7595 6.78535 19.6977 6.81831 19.5741L10.1054 9.86458C10.1383 9.76343 10.1712 9.64828 10.204 9.51904C10.247 9.29408 10.269 9.06553 10.2698 8.83636C10.2603 8.76864 10.3198 8.70882 10.3848 8.71831H12.998C13.0746 8.71831 13.1183 8.74641 13.1295 8.80259L16.8604 19.591C16.8932 19.7034 16.8604 19.7596 16.7618 19.7595H14.6251C14.5502 19.7681 14.4786 19.7167 14.4608 19.6416L13.6225 17.1468ZM10.4177 15.0228H13.0145C12.5878 13.5649 12.1063 12.1261 11.7161 10.6569C11.295 12.1286 10.8356 13.5944 10.4177 15.0228Z" fill="#FF9A00"/>
<path d="M19.0789 10.5051C18.9112 10.512 18.7441 10.4825 18.5882 10.4186C18.4325 10.3548 18.2916 10.2578 18.1749 10.1343C18.0585 10.0053 17.968 9.85408 17.9088 9.68914C17.8496 9.52429 17.8227 9.34903 17.8297 9.17341C17.8238 8.99955 17.8536 8.82639 17.9173 8.66517C17.9811 8.50396 18.0772 8.35835 18.1996 8.23785C18.3207 8.11859 18.4636 8.02516 18.6203 7.96296C18.7768 7.90074 18.9438 7.871 19.1117 7.87543C19.5062 7.87543 19.8157 7.99624 20.0403 8.23785C20.1537 8.36341 20.2418 8.51067 20.2996 8.67121C20.3574 8.83173 20.3838 9.00244 20.3772 9.17341C20.3841 9.34964 20.3564 9.5256 20.2956 9.69063C20.235 9.85565 20.1425 10.0065 20.0239 10.1343C19.8999 10.2596 19.7518 10.3573 19.5892 10.4212C19.4266 10.485 19.2528 10.5136 19.0789 10.5051ZM17.9448 19.5909V11.5334C17.9448 11.4322 17.9884 11.3817 18.0763 11.3817H20.0979C20.1854 11.3817 20.2292 11.4322 20.2293 11.5334V19.5909C20.2293 19.7034 20.1855 19.7596 20.0979 19.7595H18.0927C17.9941 19.7595 17.9448 19.7033 17.9448 19.5909Z" fill="#FF9A00"/>
</svg>
