<svg width="28" height="28" viewBox="0 0 28 28" fill="none" xmlns="http://www.w3.org/2000/svg">
<path d="M1.75 10.6166C1.75 7.51304 1.75 5.96123 2.354 4.7758C2.8853 3.73307 3.73307 2.8853 4.7758 2.354C5.96123 1.75 7.51304 1.75 10.6166 1.75H17.3834C20.487 1.75 22.0388 1.75 23.2242 2.354C24.2669 2.8853 25.1147 3.73307 25.646 4.7758C26.25 5.96123 26.25 7.51304 26.25 10.6166V17.3834C26.25 20.487 26.25 22.0388 25.646 23.2242C25.1147 24.2669 24.2669 25.1147 23.2242 25.646C22.0388 26.25 20.487 26.25 17.3834 26.25H10.6166C7.51304 26.25 5.96123 26.25 4.7758 25.646C3.73307 25.1147 2.8853 24.2669 2.354 23.2242C1.75 22.0388 1.75 20.487 1.75 17.3834V10.6166Z" fill="#00005B"/>
<path d="M7 19.0712V8.05697C7 7.98204 7.03071 7.93922 7.10238 7.93922C8.16046 7.93922 9.21804 7.875 10.2764 7.875C11.9937 7.875 13.8533 8.47353 14.505 10.3048C14.6586 10.7544 14.7405 11.2146 14.7405 11.6963C14.7405 12.6168 14.5358 13.3767 14.1262 13.9762C12.9822 15.6506 10.9993 15.6246 9.2218 15.6246V19.0605C9.23571 19.1622 9.15066 19.2104 9.06824 19.2104H7.12287C7.04096 19.2104 7 19.1676 7 19.0712ZM9.23204 10.0051V13.6015C9.93685 13.6542 10.6743 13.6599 11.3515 13.4303C12.0991 13.2105 12.5085 12.5509 12.5085 11.7605C12.5293 11.087 12.1692 10.4408 11.5563 10.1978C10.8873 9.91419 9.95426 9.89721 9.23204 10.0051Z" fill="#9999FF"/>
<path d="M16.1285 10.6854H17.9254C18.0245 10.6864 18.1135 10.7579 18.1396 10.8578C18.2713 11.1634 18.2876 11.5321 18.288 11.862C18.5962 11.4869 18.9677 11.1745 19.3842 10.94C19.8309 10.6759 20.3373 10.5419 20.8504 10.5523C20.9356 10.5396 21.0109 10.6184 20.9988 10.7074V12.7926C20.9988 12.8732 20.9436 12.9133 20.8339 12.9133C20.0734 12.8584 18.8893 13.0463 18.3367 13.6715V19.0934C18.3367 19.1968 18.2927 19.2485 18.2048 19.2485H16.2769C16.1822 19.2627 16.0987 19.1736 16.1121 19.0761V13.189C16.1121 12.4002 16.1284 11.5875 16.0132 10.8061C15.9954 10.7342 16.0612 10.6673 16.1285 10.6854Z" fill="#9999FF"/>
</svg>
