<svg width="28" height="28" viewBox="0 0 28 28" fill="none" xmlns="http://www.w3.org/2000/svg">
<path fill-rule="evenodd" clip-rule="evenodd" d="M14 14C14 12.067 15.567 10.5 17.5 10.5C19.433 10.5 21 12.067 21 14C21 15.933 19.433 17.5 17.5 17.5C15.567 17.5 14 15.933 14 14Z" fill="#1ABCFE"/>
<path fill-rule="evenodd" clip-rule="evenodd" d="M7 21C7 19.067 8.567 17.5 10.5 17.5H14V21C14 22.933 12.433 24.5 10.5 24.5C8.567 24.5 7 22.933 7 21Z" fill="#0ACF83"/>
<path fill-rule="evenodd" clip-rule="evenodd" d="M14 3.5V10.5H17.5C19.433 10.5 21 8.93296 21 7C21 5.067 19.433 3.5 17.5 3.5H14Z" fill="#FF7262"/>
<path fill-rule="evenodd" clip-rule="evenodd" d="M7 7C7 8.93296 8.567 10.5 10.5 10.5H14V3.5H10.5C8.567 3.5 7 5.067 7 7Z" fill="#F24E1E"/>
<path fill-rule="evenodd" clip-rule="evenodd" d="M7 14C7 15.933 8.567 17.5 10.5 17.5H14V10.5H10.5C8.567 10.5 7 12.067 7 14Z" fill="#A259FF"/>
</svg>
