<svg width="28" height="28" viewBox="0 0 28 28" fill="none" xmlns="http://www.w3.org/2000/svg">
<path d="M1.75 10.6166C1.75 7.51304 1.75 5.96123 2.354 4.7758C2.8853 3.73307 3.73307 2.8853 4.7758 2.354C5.96123 1.75 7.51304 1.75 10.6166 1.75H17.3834C20.487 1.75 22.0388 1.75 23.2242 2.354C24.2669 2.8853 25.1147 3.73307 25.646 4.7758C26.25 5.96123 26.25 7.51304 26.25 10.6166V17.3834C26.25 20.487 26.25 22.0388 25.646 23.2242C25.1147 24.2669 24.2669 25.1147 23.2242 25.646C22.0388 26.25 20.487 26.25 17.3834 26.25H10.6166C7.51304 26.25 5.96123 26.25 4.7758 25.646C3.73307 25.1147 2.8853 24.2669 2.354 23.2242C1.75 22.0388 1.75 20.487 1.75 17.3834V10.6166Z" fill="#001E36"/>
<path d="M7 19.7017V8.92797C7 8.85474 7.03062 8.81283 7.10209 8.81283C8.15701 8.81283 9.21148 8.75 10.2666 8.75C11.9789 8.75 13.8329 9.33546 14.4827 11.1267C14.6359 11.5664 14.7175 12.0166 14.7175 12.4878C14.7175 13.3883 14.5134 14.1316 14.105 14.7179C12.9644 16.3558 10.9874 16.3303 9.21524 16.3303V19.6913C9.22906 19.7907 9.14427 19.8378 9.06211 19.8378H7.1225C7.04084 19.8378 7 19.7959 7 19.7017ZM9.22539 10.8335V14.3515C9.9281 14.4029 10.6634 14.4085 11.3385 14.184C12.0839 13.9689 12.4921 13.3238 12.4921 12.5506C12.5128 11.8919 12.1538 11.2598 11.5427 11.022C10.8757 10.7446 9.94542 10.728 9.22539 10.8335Z" fill="#31A8FF"/>
<path d="M21.0846 13.6565C20.7757 13.4936 20.4467 13.3745 20.1066 13.3024C19.6696 13.1996 17.9461 12.8395 17.9454 13.7407C17.9607 14.2439 18.7594 14.4903 19.1123 14.6341C20.3512 15.0594 21.7531 15.8197 21.7255 17.3481C21.7634 19.2507 19.92 20.0113 18.3398 20.0115C17.5172 20.02 16.6602 19.8926 15.9074 19.5394C15.8355 19.5014 15.7893 19.4201 15.7923 19.3371V17.5166C15.7842 17.4436 15.8626 17.3799 15.9238 17.4324C16.6615 17.8784 17.5358 18.0951 18.3892 18.1066C18.7658 18.1066 19.5124 18.0701 19.5068 17.5166C19.5068 16.9855 18.6137 16.7413 18.2576 16.6064C17.7416 16.4222 17.2523 16.1669 16.8031 15.8478C16.1754 15.4001 15.7817 14.6822 15.7923 13.8925C15.7887 12.101 17.4855 11.2969 19.0137 11.2965C19.7281 11.2906 20.4953 11.3435 21.1603 11.6336C21.2559 11.6617 21.2757 11.7625 21.2753 11.8527V13.5553C21.2814 13.661 21.164 13.697 21.0846 13.6565Z" fill="#31A8FF"/>
</svg>
