<svg width="28" height="28" viewBox="0 0 28 28" fill="none" xmlns="http://www.w3.org/2000/svg">
<g clip-path="url(#clip0_70_249)">
<path d="M0 25.6664V2.33333C0 1.04533 1.04531 0 2.33358 0H25.6664C26.9547 0 28 1.04533 28 2.33333V25.6664C28 26.9547 26.9547 28 25.6664 28H2.33358C1.04531 28 0 26.9547 0 25.6664Z" fill="#406AFF"/>
<path d="M10.899 20.37L7.00098 7H9.84292C10.2323 7 10.5741 7.25783 10.6832 7.63262L13.6765 17.9786C13.6952 18.0413 13.7526 18.0833 13.818 18.0833H14.1817C14.2467 18.0833 14.3042 18.0413 14.3228 17.9786L17.3161 7.63262C17.4249 7.25783 17.7671 7 18.1564 7H20.9984L17.0997 20.37C16.9909 20.743 16.6482 21 16.2598 21H11.7396C11.3505 21 11.0081 20.743 10.899 20.37Z" fill="#FBFBFB"/>
</g>
<defs>
<clipPath id="clip0_70_249">
<rect width="28" height="28" fill="white"/>
</clipPath>
</defs>
</svg>
